<svg version="1.1" viewBox="0.0 0.0 480.0 480.0" fill="none" stroke="none" stroke-linecap="square" stroke-miterlimit="10" xmlns:xlink="http://www.w3.org/1999/xlink" xmlns="http://www.w3.org/2000/svg"><clipPath id="p.0"><path d="m0 0l480.0 0l0 480.0l-480.0 0l0 -480.0z" clip-rule="nonzero"/></clipPath><g clip-path="url(#p.0)"><path fill="#000000" fill-opacity="0.0" d="m0 0l480.0 0l0 480.0l-480.0 0z" fill-rule="evenodd"/><path fill="#b98cf6" d="m29.900944 119.0627l197.72134 53.37668l-9.691513 35.682358l-197.72133 -53.376694z" fill-rule="evenodd"/><path fill="#b98cf6" d="m161.17628 166.18971l0 0c-24.53215 -42.718384 -9.789291 -97.23571 32.929077 -121.76786l0 0c20.5141 -11.780754 44.867874 -14.929808 67.70378 -8.754406c22.835876 6.1754 42.283325 21.1694 54.064087 41.68349l0 0c24.532135 42.718376 9.789276 97.2357 -32.929077 121.76785l0 0c-42.7184 24.53215 -97.23572 9.789291 -121.76787 -32.929077zm32.772552 -18.820496l0 0c14.137878 24.618591 45.556213 33.1149 70.17482 18.97702c24.618591 -14.137878 33.1149 -45.556206 18.97702 -70.17481c-14.137878 -24.618599 -45.556213 -33.114902 -70.17482 -18.977028l0 0c-24.618591 14.137878 -33.1149 45.556213 -18.97702 70.17482z" fill-rule="evenodd"/><path fill="#b98cf6" d="m450.12747 360.95016l-197.72131 -53.37671l9.691498 -35.682343l197.72134 53.37668z" fill-rule="evenodd"/><path fill="#b98cf6" d="m318.85214 313.82315l0 0c24.532135 42.718353 9.789307 97.23569 -32.929077 121.76785l0 0c-20.5141 11.780731 -44.86786 14.92981 -67.703766 8.754395c-22.835907 -6.175415 -42.28334 -21.169403 -54.064087 -41.683502l0 0c-24.53215 -42.718353 -9.789307 -97.23569 32.929077 -121.76785l0 0c42.718384 -24.532135 97.23572 -9.789276 121.76785 32.929108zm-32.772552 18.820496l0 0c-14.137878 -24.618622 -45.5562 -33.11493 -70.174805 -18.97705c-24.618607 14.137878 -33.114914 45.556213 -18.977036 70.174835c14.137878 24.618591 45.556213 33.1149 70.17482 18.97702l0 0c24.618591 -14.137878 33.1149 -45.556213 18.97702 -70.174805z" fill-rule="evenodd"/><path fill="#b98cf6" d="m287.83517 334.0582l-123.78691 -163.21371l29.73529 -22.466675l123.78691 163.21371z" fill-rule="evenodd"/></g></svg>